<svg width="24" height="24" viewBox="0 0 24 24" fill="none" xmlns="http://www.w3.org/2000/svg">
<path d="M18.6667 0H5.33333C2.38667 0 0 2.38667 0 5.33333V18.6667C0 21.6133 2.38667 24 5.33333 24H21.3333C22.8133 24 24 22.8133 24 21.3333V8C24 6.53333 22.8133 5.33333 21.3333 5.33333V2.66667C21.3333 1.2 20.1467 0 18.6667 0ZM18.6667 2.66667V5.33333H5.33333C4.36 5.33333 3.45333 5.6 2.66667 6.05333V5.33333C2.66667 3.86667 3.86667 2.66667 5.33333 2.66667M16.6667 16.6667C15.56 16.6667 14.6667 15.7733 14.6667 14.6667C14.6667 13.56 15.56 12.6667 16.6667 12.6667C17.7733 12.6667 18.6667 13.56 18.6667 14.6667C18.6667 15.7733 17.7733 16.6667 16.6667 16.6667Z" fill="black"/>
</svg>
