<svg width="28" height="28" viewBox="0 0 28 28" fill="none" xmlns="http://www.w3.org/2000/svg">
<path d="M15.3337 10.0001H12.667V7.33341H15.3337M15.3337 20.6667H12.667V12.6667H15.3337M14.0003 0.666748C12.2494 0.666748 10.5156 1.01162 8.89788 1.68169C7.2802 2.35175 5.81035 3.33388 4.57223 4.57199C2.07175 7.07248 0.666992 10.4639 0.666992 14.0001C0.666992 17.5363 2.07175 20.9277 4.57223 23.4282C5.81035 24.6663 7.2802 25.6484 8.89788 26.3185C10.5156 26.9885 12.2494 27.3334 14.0003 27.3334C17.5365 27.3334 20.9279 25.9287 23.4284 23.4282C25.9289 20.9277 27.3337 17.5363 27.3337 14.0001C27.3337 12.2491 26.9888 10.5153 26.3187 8.89763C25.6487 7.27996 24.6665 5.81011 23.4284 4.57199C22.1903 3.33388 20.7204 2.35175 19.1028 1.68169C17.4851 1.01162 15.7513 0.666748 14.0003 0.666748Z" fill="black"/>
</svg>
