<svg width="28" height="28" viewBox="0 0 28 28" fill="none" xmlns="http://www.w3.org/2000/svg">
<path d="M4.66699 6.00008C3.20033 6.00008 2.00033 7.20008 2.00033 8.66675C2.00033 10.1334 3.20033 11.3334 4.66699 11.3334C6.13366 11.3334 7.33366 10.1467 7.33366 8.66675C7.33366 7.18675 6.14699 6.00008 4.66699 6.00008ZM14.0003 3.33341C12.5337 3.33341 11.3337 4.52008 11.3337 6.00008C11.3337 7.48008 12.5337 8.66675 14.0003 8.66675C15.467 8.66675 16.667 7.48008 16.667 6.00008C16.667 4.52008 15.4803 3.33341 14.0003 3.33341ZM23.3337 0.666748C21.867 0.666748 20.667 1.86675 20.667 3.33341C20.667 4.80008 21.867 6.00008 23.3337 6.00008C24.8003 6.00008 26.0003 4.81341 26.0003 3.33341C26.0003 1.85341 24.8137 0.666748 23.3337 0.666748ZM2.66699 12.6667C1.56033 12.6667 0.666992 13.5601 0.666992 14.6667V20.6667H2.00033V27.3334H7.33366V20.6667H8.66699V14.6667C8.66699 13.5601 7.77366 12.6667 6.66699 12.6667H2.66699ZM12.0003 10.0001C10.8937 10.0001 10.0003 10.8934 10.0003 12.0001V18.0001H11.3337V24.6667H16.667V18.0001H18.0003V12.0001C18.0003 10.8934 17.107 10.0001 16.0003 10.0001H12.0003ZM21.3337 7.33341C20.227 7.33341 19.3337 8.22675 19.3337 9.33341V15.3334H20.667V22.0001H26.0003V15.3334H27.3337V9.33341C27.3337 8.22675 26.4403 7.33341 25.3337 7.33341H21.3337Z" fill="black"/>
</svg>
