<svg width="49" height="22" viewBox="0 0 49 22" fill="none" xmlns="http://www.w3.org/2000/svg">
<path d="M37.7 0.240234C34.82 0.240234 32.1 1.36023 30.16 3.30023L16.1 15.7802C14.82 17.0602 13.12 17.7602 11.3 17.7602C7.56 17.7602 4.5 14.7402 4.5 11.0002C4.5 7.26023 7.56 4.24023 11.3 4.24023C13.12 4.24023 14.82 4.94023 16.18 6.30023L18.44 8.30023L21.5 5.62024L18.94 3.40023C16.9 1.36023 14.18 0.240234 11.3 0.240234C5.34 0.240234 0.5 5.08023 0.5 11.0002C0.5 16.9202 5.34 21.7602 11.3 21.7602C14.18 21.7602 16.9 20.6402 18.84 18.7002L32.9 6.22023C34.18 4.94023 35.88 4.24023 37.7 4.24023C41.44 4.24023 44.5 7.26023 44.5 11.0002C44.5 14.7402 41.44 17.7602 37.7 17.7602C35.9 17.7602 34.18 17.0602 32.82 15.7002L30.5 13.6802L27.5 16.3602L30.06 18.6002C32.1 20.6202 34.8 21.7402 37.7 21.7402C43.66 21.7402 48.5 16.9202 48.5 11.0002C48.5 5.00023 43.66 0.240234 37.7 0.240234Z" fill="#F5F8F8"/>
</svg>
