<svg width="45" height="36" viewBox="0 0 45 36" fill="none" xmlns="http://www.w3.org/2000/svg">
<path d="M22.5 0C25.98 0 29.22 1 31.98 2.7C33.26 1.06 35.26 0 37.5 0C39.3565 0 41.137 0.737498 42.4497 2.05025C43.7625 3.36301 44.5 5.14348 44.5 7C44.5 10 42.6 12.56 39.94 13.56C40.3 15 40.5 16.46 40.5 18C40.5 22.7739 38.6036 27.3523 35.2279 30.7279C31.8523 34.1036 27.2739 36 22.5 36C17.7261 36 13.1477 34.1036 9.77208 30.7279C6.39642 27.3523 4.5 22.7739 4.5 18C4.5 16.46 4.7 15 5.06 13.56C2.4 12.56 0.5 10 0.5 7C0.5 5.14348 1.2375 3.36301 2.55025 2.05025C3.86301 0.737498 5.64348 0 7.5 0C9.74 0 11.74 1.06 13.02 2.7C15.78 1 19.02 0 22.5 0ZM22.5 4C18.787 4 15.226 5.475 12.6005 8.1005C9.975 10.726 8.5 14.287 8.5 18C8.5 21.713 9.975 25.274 12.6005 27.8995C15.226 30.525 18.787 32 22.5 32C26.213 32 29.774 30.525 32.3995 27.8995C35.025 25.274 36.5 21.713 36.5 18C36.5 14.287 35.025 10.726 32.3995 8.1005C29.774 5.475 26.213 4 22.5 4ZM30.88 14.6C31.6 17.26 30.66 19.82 28.8 20.32C26.92 20.84 24.84 19.08 24.12 16.4C23.4 13.74 24.34 11.18 26.2 10.68C28.08 10.18 30.16 11.92 30.88 14.6ZM14.12 14.6C14.84 11.92 16.92 10.18 18.8 10.68C20.66 11.18 21.6 13.74 20.88 16.4C20.16 19.08 18.08 20.84 16.2 20.32C14.34 19.82 13.4 17.26 14.12 14.6ZM22.5 22C23.7 22 24.76 22.38 25.5 23L23.5 25C23.5 25.84 24.18 26.5 25 26.5C25.3978 26.5 25.7794 26.342 26.0607 26.0607C26.342 25.7794 26.5 25.3978 26.5 25C26.5 24.7348 26.6054 24.4804 26.7929 24.2929C26.9804 24.1054 27.2348 24 27.5 24C27.7652 24 28.0196 24.1054 28.2071 24.2929C28.3946 24.4804 28.5 24.7348 28.5 25C28.5 25.9283 28.1313 26.8185 27.4749 27.4749C26.8185 28.1313 25.9283 28.5 25 28.5C24.02 28.5 23.14 28.1 22.5 27.44C21.86 28.1 20.98 28.5 20 28.5C19.0717 28.5 18.1815 28.1313 17.5251 27.4749C16.8687 26.8185 16.5 25.9283 16.5 25C16.5 24.7348 16.6054 24.4804 16.7929 24.2929C16.9804 24.1054 17.2348 24 17.5 24C17.7652 24 18.0196 24.1054 18.2071 24.2929C18.3946 24.4804 18.5 24.7348 18.5 25C18.5 25.3978 18.658 25.7794 18.9393 26.0607C19.2206 26.342 19.6022 26.5 20 26.5C20.3978 26.5 20.7794 26.342 21.0607 26.0607C21.342 25.7794 21.5 25.3978 21.5 25L19.5 23C20.24 22.38 21.3 22 22.5 22Z" fill="#F5F8F8"/>
</svg>
