<svg width="37" height="40" viewBox="0 0 37 40" fill="none" xmlns="http://www.w3.org/2000/svg">
<path d="M30.5 28.16C28.98 28.16 27.62 28.76 26.58 29.7L12.32 21.4C12.42 20.94 12.5 20.48 12.5 20C12.5 19.52 12.42 19.06 12.32 18.6L26.42 10.38C27.5 11.38 28.92 12 30.5 12C32.0913 12 33.6174 11.3679 34.7426 10.2426C35.8679 9.11742 36.5 7.5913 36.5 6C36.5 4.4087 35.8679 2.88258 34.7426 1.75736C33.6174 0.632141 32.0913 0 30.5 0C28.9087 0 27.3826 0.632141 26.2574 1.75736C25.1321 2.88258 24.5 4.4087 24.5 6C24.5 6.48 24.58 6.94 24.68 7.4L10.58 15.62C9.5 14.62 8.08 14 6.5 14C4.9087 14 3.38258 14.6321 2.25736 15.7574C1.13214 16.8826 0.5 18.4087 0.5 20C0.5 21.5913 1.13214 23.1174 2.25736 24.2426C3.38258 25.3679 4.9087 26 6.5 26C8.08 26 9.5 25.38 10.58 24.38L24.82 32.68C24.72 33.1 24.66 33.54 24.66 34C24.66 37.22 27.28 39.82 30.5 39.82C33.72 39.82 36.34 37.22 36.34 34C36.34 32.4511 35.7247 30.9657 34.6295 29.8705C33.5343 28.7753 32.0489 28.16 30.5 28.16Z" fill="#F5F8F8"/>
</svg>
