<svg width="31" height="36" viewBox="0 0 31 36" fill="none" xmlns="http://www.w3.org/2000/svg">
<path d="M12.5 36V27.48C11.56 27.82 10.56 28 9.5 28C4.5 28 0.5 24 0.5 19C0.5 16.46 1.5 14.18 3.22 12.54C2.76 11.46 2.5 10.26 2.5 9C2.5 4 6.5 0 11.5 0C14.62 0 17.38 1.6 19 4C19.16 4 19.32 4 19.5 4C20.9445 4 22.3749 4.28452 23.7095 4.83733C25.0441 5.39013 26.2567 6.20038 27.2782 7.22183C28.2996 8.24327 29.1099 9.4559 29.6627 10.7905C30.2155 12.1251 30.5 13.5555 30.5 15C30.5 16.4445 30.2155 17.8749 29.6627 19.2095C29.1099 20.5441 28.2996 21.7567 27.2782 22.7782C26.2567 23.7996 25.0441 24.6099 23.7095 25.1627C22.3749 25.7155 20.9445 26 19.5 26C18.5 26 17.5 25.86 16.5 25.58V36H12.5Z" fill="#F5F8F8"/>
</svg>
